<?xml version="1.0" encoding="UTF-8"?>
<svg width="120px" height="72px" viewBox="0 0 120 72" version="1.1" xmlns="http://www.w3.org/2000/svg" xmlns:xlink="http://www.w3.org/1999/xlink">
    <!-- Generator: Sketch 48.2 (47327) - http://www.bohemiancoding.com/sketch -->
    <title>header__logo</title>
    <desc>Created with Sketch.</desc>
    <defs></defs>
    <g id="PC（EN）" stroke="none" stroke-width="1" fill="none" fill-rule="evenodd" transform="translate(-100.000000, -40.000000)">
        <g id="Firstview">
            <g id="header" transform="translate(100.000000, 40.000000)">
                <g id="header__logo">
                    <rect id="Rectangle" fill="#FFFFFF" x="0" y="0" width="120" height="72"></rect>
                    <g id="text" transform="translate(14.000000, 13.000000)" fill="#E23030">
                        <path d="M10.8815,10.5 C11.5971702,11.3106707 11.955,12.4253262 11.955,13.844 L11.955,20 L8.706,20 L8.706,14.224 C8.706,13.5146631 8.51916853,12.960502 8.1455,12.5615 C7.77183146,12.162498 7.27466977,11.963 6.654,11.963 C5.99533004,11.963 5.47283527,12.1719979 5.0865,12.59 C4.70016474,13.0080021 4.507,13.6033295 4.507,14.376 L4.507,20 L1.258,20 L1.258,9.398 L4.507,9.398 L4.507,11.336 C4.81100152,10.7026635 5.26383033,10.2023352 5.8655,9.835 C6.46716968,9.46766483 7.17332928,9.284 7.984,9.284 C9.20000608,9.284 10.1658298,9.68932928 10.8815,10.5 Z M20.22,9.816 C20.8026696,10.1833352 21.2333319,10.6836635 21.512,11.317 L21.512,9.398 L24.742,9.398 L24.742,19.943 C24.742,20.9310049 24.5520019,21.8208294 24.172,22.6125 C23.7919981,23.4041706 23.2093373,24.034331 22.424,24.503 C21.6386627,24.971669 20.6633392,25.206 19.498,25.206 C17.901992,25.206 16.6258381,24.8291704 15.6695,24.0755 C14.7131619,23.3218296 14.1400009,22.2990065 13.95,21.007 L17.161,21.007 C17.2623338,21.4376688 17.4934982,21.7733321 17.8545,22.014 C18.2155018,22.2546679 18.6873304,22.375 19.27,22.375 C19.9413367,22.375 20.4828313,22.1818353 20.8945,21.7955 C21.3061687,21.4091647 21.512,20.7916709 21.512,19.943 L21.512,18.081 C21.2333319,18.7143365 20.8026696,19.2146648 20.22,19.582 C19.6373304,19.9493352 18.9406707,20.133 18.13,20.133 C17.2559956,20.133 16.4738368,19.9145022 15.7835,19.4775 C15.0931632,19.0404978 14.548502,18.4103375 14.1495,17.587 C13.750498,16.7636625 13.551,15.8010055 13.551,14.699 C13.551,13.5843278 13.750498,12.6185041 14.1495,11.8015 C14.548502,10.9844959 15.0931632,10.3575022 15.7835,9.9205 C16.4738368,9.48349781 17.2559956,9.265 18.13,9.265 C18.9406707,9.265 19.6373304,9.44866483 20.22,9.816 Z M17.4935,12.799 C17.0691645,13.2550023 16.857,13.8883293 16.857,14.699 C16.857,15.5096707 17.0691645,16.1429977 17.4935,16.599 C17.9178355,17.0550023 18.4783299,17.283 19.175,17.283 C19.8590034,17.283 20.4194978,17.048669 20.8565,16.58 C21.2935022,16.111331 21.512,15.4843373 21.512,14.699 C21.512,13.900996 21.2935022,13.2708356 20.8565,12.8085 C20.4194978,12.3461644 19.8590034,12.115 19.175,12.115 C18.4783299,12.115 17.9178355,12.3429977 17.4935,12.799 Z" id="ng"></path>
                        <rect id="Rectangle-13" x="27" y="13.2407227" width="6" height="3.5"></rect>
                        <path d="M35.6680031,7.6215 C35.3133346,7.29849839 35.1360031,6.89633574 35.1360031,6.415 C35.1360031,5.92099753 35.3133346,5.51250162 35.6680031,5.1895 C36.0226715,4.86649838 36.4913335,4.705 37.0740031,4.705 C37.6566726,4.705 38.1253346,4.86649838 38.4800031,5.1895 C38.8346715,5.51250162 39.0120031,5.92099753 39.0120031,6.415 C39.0120031,6.89633574 38.8346715,7.29849839 38.4800031,7.6215 C38.1253346,7.94450162 37.6566726,8.106 37.0740031,8.106 C36.4913335,8.106 36.0226715,7.94450162 35.6680031,7.6215 Z M33.6920031,22.261 L34.4900031,22.261 C34.8320048,22.261 35.0790023,22.1881674 35.2310031,22.0425 C35.3830038,21.8968326 35.4590031,21.6530017 35.4590031,21.311 L35.4590031,9.398 L38.7270031,9.398 L38.7270031,21.273 C38.7270031,23.7936793 37.4603491,25.054 34.9270031,25.054 L33.6920031,25.054 L33.6920031,22.261 Z M47.0490031,9.816 C47.6316726,10.1833352 48.062335,10.6836635 48.3410031,11.317 L48.3410031,9.398 L51.5710031,9.398 L51.5710031,20 L48.3410031,20 L48.3410031,18.081 C48.062335,18.7143365 47.6316726,19.2146648 47.0490031,19.582 C46.4663335,19.9493352 45.7696738,20.133 44.9590031,20.133 C44.0849987,20.133 43.3028398,19.9145022 42.6125031,19.4775 C41.9221663,19.0404978 41.377505,18.4103374 40.9785031,17.587 C40.5795011,16.7636625 40.3800031,15.8010055 40.3800031,14.699 C40.3800031,13.5843278 40.5795011,12.6185041 40.9785031,11.8015 C41.377505,10.9844959 41.9221663,10.3575022 42.6125031,9.9205 C43.3028398,9.48349781 44.0849987,9.265 44.9590031,9.265 C45.7696738,9.265 46.4663335,9.44866483 47.0490031,9.816 Z M44.3225031,12.799 C43.8981676,13.2550023 43.6860031,13.8883293 43.6860031,14.699 C43.6860031,15.5096707 43.8981676,16.1429977 44.3225031,16.599 C44.7468385,17.0550023 45.3073329,17.283 46.0040031,17.283 C46.6880065,17.283 47.2485009,17.048669 47.6855031,16.58 C48.1225052,16.111331 48.3410031,15.4843373 48.3410031,14.699 C48.3410031,13.900996 48.1225052,13.2708356 47.6855031,12.8085 C47.2485009,12.3461644 46.6880065,12.115 46.0040031,12.115 C45.3073329,12.115 44.7468385,12.3429977 44.3225031,12.799 Z M62.7715031,9.9205 C63.4618398,10.3575022 64.0065011,10.9844959 64.4055031,11.8015 C64.804505,12.6185041 65.0040031,13.5843278 65.0040031,14.699 C65.0040031,15.8010055 64.804505,16.7636625 64.4055031,17.587 C64.0065011,18.4103375 63.4618398,19.0404978 62.7715031,19.4775 C62.0811663,19.9145022 61.2990074,20.133 60.4250031,20.133 C59.6143323,20.133 58.9176726,19.9493352 58.3350031,19.582 C57.7523335,19.2146648 57.3280044,18.7143365 57.0620031,18.081 L57.0620031,25.054 L53.8130031,25.054 L53.8130031,9.398 L57.0620031,9.398 L57.0620031,11.317 C57.3280044,10.6836635 57.7523335,10.1833352 58.3350031,9.816 C58.9176726,9.44866483 59.6143323,9.265 60.4250031,9.265 C61.2990074,9.265 62.0811663,9.48349781 62.7715031,9.9205 Z M57.6985031,12.8085 C57.2615009,13.2708356 57.0430031,13.900996 57.0430031,14.699 C57.0430031,15.4843373 57.2615009,16.111331 57.6985031,16.58 C58.1355052,17.048669 58.6959996,17.283 59.3800031,17.283 C60.0766732,17.283 60.6371676,17.0550023 61.0615031,16.599 C61.4858385,16.1429977 61.6980031,15.5096707 61.6980031,14.699 C61.6980031,13.8883293 61.4858385,13.2550023 61.0615031,12.799 C60.6371676,12.3429977 60.0766732,12.115 59.3800031,12.115 C58.6959996,12.115 58.1355052,12.3461644 57.6985031,12.8085 Z M72.8130031,9.816 C73.3956726,10.1833352 73.826335,10.6836635 74.1050031,11.317 L74.1050031,9.398 L77.3350031,9.398 L77.3350031,20 L74.1050031,20 L74.1050031,18.081 C73.826335,18.7143365 73.3956726,19.2146648 72.8130031,19.582 C72.2303335,19.9493352 71.5336738,20.133 70.7230031,20.133 C69.8489987,20.133 69.0668398,19.9145022 68.3765031,19.4775 C67.6861663,19.0404978 67.141505,18.4103374 66.7425031,17.587 C66.3435011,16.7636625 66.1440031,15.8010055 66.1440031,14.699 C66.1440031,13.5843278 66.3435011,12.6185041 66.7425031,11.8015 C67.141505,10.9844959 67.6861663,10.3575022 68.3765031,9.9205 C69.0668398,9.48349781 69.8489987,9.265 70.7230031,9.265 C71.5336738,9.265 72.2303335,9.44866483 72.8130031,9.816 Z M70.0865031,12.799 C69.6621676,13.2550023 69.4500031,13.8883293 69.4500031,14.699 C69.4500031,15.5096707 69.6621676,16.1429977 70.0865031,16.599 C70.5108385,17.0550023 71.0713329,17.283 71.7680031,17.283 C72.4520065,17.283 73.0125009,17.048669 73.4495031,16.58 C73.8865052,16.111331 74.1050031,15.4843373 74.1050031,14.699 C74.1050031,13.900996 73.8865052,13.2708356 73.4495031,12.8085 C73.0125009,12.3461644 72.4520065,12.115 71.7680031,12.115 C71.0713329,12.115 70.5108385,12.3429977 70.0865031,12.799 Z M89.2005031,10.5 C89.9161733,11.3106707 90.2740031,12.4253262 90.2740031,13.844 L90.2740031,20 L87.0250031,20 L87.0250031,14.224 C87.0250031,13.5146631 86.8381716,12.960502 86.4645031,12.5615 C86.0908345,12.162498 85.5936728,11.963 84.9730031,11.963 C84.3143331,11.963 83.7918383,12.1719979 83.4055031,12.59 C83.0191678,13.0080021 82.8260031,13.6033295 82.8260031,14.376 L82.8260031,20 L79.5770031,20 L79.5770031,9.398 L82.8260031,9.398 L82.8260031,11.336 C83.1300046,10.7026635 83.5828334,10.2023352 84.1845031,9.835 C84.7861727,9.46766483 85.4923323,9.284 86.3030031,9.284 C87.5190091,9.284 88.4848328,9.68932928 89.2005031,10.5 Z" id="japan"></path>
                        <path d="M58.061,42 L48.124,42 L48.124,39.454 C53.615,35.483 54.641,34.609 54.641,33.336 C54.641,32.481 53.824,32.025 52.893,32.025 C51.487,32.025 50.423,32.557 49.511,33.412 L47.706,31.246 C49.055,29.764 51.069,29.137 52.836,29.137 C55.819,29.137 57.966,30.809 57.966,33.336 C57.966,35.293 56.579,36.946 53.425,39.15 L58.061,39.15 L58.061,42 Z M64.949,42.228 C61.244,42.228 59.515,39.017 59.515,35.673 C59.515,32.329 61.244,29.137 64.949,29.137 C68.654,29.137 70.383,32.329 70.383,35.673 C70.383,39.017 68.654,42.228 64.949,42.228 Z M64.949,39.34 C66.469,39.34 67.077,37.915 67.077,35.673 C67.077,33.431 66.469,32.025 64.949,32.025 C63.429,32.025 62.821,33.431 62.821,35.673 C62.821,37.915 63.429,39.34 64.949,39.34 Z M78.43,42 L75.162,42 L75.162,33.507 L73.034,35.654 L71.172,33.697 L75.599,29.327 L78.43,29.327 L78.43,42 Z M85.641,42.228 C82.905,42.228 80.264,41.145 80.264,38.656 C80.264,37.212 81.366,36.034 82.829,35.464 C81.48,34.951 80.473,34.039 80.473,32.519 C80.473,30.068 83.171,29.137 85.641,29.137 C88.111,29.137 90.809,30.068 90.809,32.519 C90.809,34.039 89.802,34.951 88.434,35.464 C89.916,36.034 91.018,37.212 91.018,38.656 C91.018,41.126 88.377,42.228 85.641,42.228 Z M85.641,34.191 C86.42,34.077 87.465,33.716 87.465,33.07 C87.465,32.405 86.743,32.025 85.641,32.025 C84.539,32.025 83.798,32.405 83.798,33.07 C83.798,33.716 84.862,34.077 85.641,34.191 Z M85.641,39.34 C86.819,39.34 87.693,38.884 87.693,38.2 C87.693,37.44 86.439,37.041 85.641,36.946 C84.824,37.041 83.589,37.44 83.589,38.2 C83.589,38.884 84.425,39.34 85.641,39.34 Z" id="2018"></path>
                    </g>
                </g>
            </g>
        </g>
    </g>
</svg>