<svg width="900" height="359" viewBox="0 0 900 359" fill="none" xmlns="http://www.w3.org/2000/svg">
<path d="M367.123 86.74C374.236 86.74 379.883 89.1233 384.063 93.89C388.243 98.5833 390.333 104.963 390.333 113.03V149H368.773V115.89C368.773 112.37 367.856 109.62 366.023 107.64C364.19 105.587 361.733 104.56 358.653 104.56C355.426 104.56 352.896 105.587 351.063 107.64C349.23 109.62 348.313 112.37 348.313 115.89V149H326.753V87.29H348.313V96.09C350.22 93.3033 352.786 91.0667 356.013 89.38C359.24 87.62 362.943 86.74 367.123 86.74ZM423.833 86.52C428.013 86.52 431.643 87.3633 434.723 89.05C437.876 90.7367 440.296 93.01 441.983 95.87V87.29H463.543V148.34C463.543 154.133 462.443 159.34 460.243 163.96C458.043 168.653 454.596 172.393 449.903 175.18C445.283 177.967 439.416 179.36 432.303 179.36C422.77 179.36 415.143 177.123 409.423 172.65C403.703 168.177 400.44 162.09 399.633 154.39H420.863C421.303 156.37 422.403 157.91 424.163 159.01C425.923 160.11 428.196 160.66 430.983 160.66C438.316 160.66 441.983 156.553 441.983 148.34V140.42C440.296 143.28 437.876 145.553 434.723 147.24C431.643 148.927 428.013 149.77 423.833 149.77C418.92 149.77 414.446 148.487 410.413 145.92C406.453 143.353 403.3 139.687 400.953 134.92C398.68 130.08 397.543 124.47 397.543 118.09C397.543 111.71 398.68 106.137 400.953 101.37C403.3 96.6033 406.453 92.9367 410.413 90.37C414.446 87.8033 418.92 86.52 423.833 86.52ZM441.983 118.09C441.983 114.13 440.883 111.013 438.683 108.74C436.556 106.467 433.916 105.33 430.763 105.33C427.536 105.33 424.86 106.467 422.733 108.74C420.606 110.94 419.543 114.057 419.543 118.09C419.543 122.05 420.606 125.203 422.733 127.55C424.86 129.823 427.536 130.96 430.763 130.96C433.916 130.96 436.556 129.823 438.683 127.55C440.883 125.277 441.983 122.123 441.983 118.09ZM522.359 101.92V119.85H472.529V101.92H522.359ZM548.003 81.57C544.189 81.57 541.109 80.5433 538.763 78.49C536.489 76.3633 535.353 73.7233 535.353 70.57C535.353 67.3433 536.489 64.6667 538.763 62.54C541.109 60.4133 544.189 59.35 548.003 59.35C551.743 59.35 554.749 60.4133 557.023 62.54C559.369 64.6667 560.543 67.3433 560.543 70.57C560.543 73.7233 559.369 76.3633 557.023 78.49C554.749 80.5433 551.743 81.57 548.003 81.57ZM558.783 155.05C558.783 170.67 550.936 178.48 535.243 178.48H527.433V160.11H532.053C533.886 160.11 535.206 159.743 536.013 159.01C536.819 158.277 537.223 157.067 537.223 155.38V87.29H558.783V155.05ZM566.333 118.09C566.333 111.71 567.47 106.137 569.743 101.37C572.09 96.6033 575.243 92.9367 579.203 90.37C583.236 87.8033 587.71 86.52 592.623 86.52C596.876 86.52 600.543 87.3633 603.623 89.05C606.703 90.7367 609.086 93.01 610.773 95.87V87.29H632.333V149H610.773V140.42C609.086 143.28 606.666 145.553 603.513 147.24C600.433 148.927 596.803 149.77 592.623 149.77C587.71 149.77 583.236 148.487 579.203 145.92C575.243 143.353 572.09 139.687 569.743 134.92C567.47 130.08 566.333 124.47 566.333 118.09ZM610.773 118.09C610.773 114.13 609.673 111.013 607.473 108.74C605.346 106.467 602.706 105.33 599.553 105.33C596.326 105.33 593.65 106.467 591.523 108.74C589.396 110.94 588.333 114.057 588.333 118.09C588.333 122.05 589.396 125.203 591.523 127.55C593.65 129.823 596.326 130.96 599.553 130.96C602.706 130.96 605.346 129.823 607.473 127.55C609.673 125.277 610.773 122.123 610.773 118.09ZM665.079 95.87C666.765 93.01 669.149 90.7367 672.229 89.05C675.309 87.3633 678.939 86.52 683.119 86.52C688.032 86.52 692.469 87.8033 696.429 90.37C700.462 92.9367 703.615 96.6033 705.889 101.37C708.235 106.137 709.409 111.71 709.409 118.09C709.409 124.47 708.235 130.08 705.889 134.92C703.615 139.687 700.462 143.353 696.429 145.92C692.469 148.487 688.032 149.77 683.119 149.77C678.939 149.77 675.309 148.927 672.229 147.24C669.222 145.553 666.839 143.28 665.079 140.42V178.48H643.519V87.29H665.079V95.87ZM687.519 118.09C687.519 114.057 686.419 110.94 684.219 108.74C682.092 106.467 679.452 105.33 676.299 105.33C673.145 105.33 670.469 106.467 668.269 108.74C666.142 111.013 665.079 114.13 665.079 118.09C665.079 122.123 666.142 125.277 668.269 127.55C670.469 129.823 673.145 130.96 676.299 130.96C679.452 130.96 682.092 129.823 684.219 127.55C686.419 125.203 687.519 122.05 687.519 118.09ZM713.664 118.09C713.664 111.71 714.801 106.137 717.074 101.37C719.421 96.6033 722.574 92.9367 726.534 90.37C730.568 87.8033 735.041 86.52 739.954 86.52C744.208 86.52 747.874 87.3633 750.954 89.05C754.034 90.7367 756.418 93.01 758.104 95.87V87.29H779.664V149H758.104V140.42C756.418 143.28 753.998 145.553 750.844 147.24C747.764 148.927 744.134 149.77 739.954 149.77C735.041 149.77 730.568 148.487 726.534 145.92C722.574 143.353 719.421 139.687 717.074 134.92C714.801 130.08 713.664 124.47 713.664 118.09ZM758.104 118.09C758.104 114.13 757.004 111.013 754.804 108.74C752.678 106.467 750.038 105.33 746.884 105.33C743.658 105.33 740.981 106.467 738.854 108.74C736.728 110.94 735.664 114.057 735.664 118.09C735.664 122.05 736.728 125.203 738.854 127.55C740.981 129.823 743.658 130.96 746.884 130.96C750.038 130.96 752.678 129.823 754.804 127.55C757.004 125.277 758.104 122.123 758.104 118.09ZM831.22 86.74C838.333 86.74 843.98 89.1233 848.16 93.89C852.34 98.5833 854.43 104.963 854.43 113.03V149H832.87V115.89C832.87 112.37 831.953 109.62 830.12 107.64C828.287 105.587 825.83 104.56 822.75 104.56C819.523 104.56 816.993 105.587 815.16 107.64C813.327 109.62 812.41 112.37 812.41 115.89V149H790.85V87.29H812.41V96.09C814.317 93.3033 816.883 91.0667 820.11 89.38C823.337 87.62 827.04 86.74 831.22 86.74Z" fill="white"/>
<path d="M622.86 257.73C630.047 252.083 635.84 247.353 640.24 243.54C644.713 239.653 648.453 235.693 651.46 231.66C654.467 227.627 655.97 223.887 655.97 220.44C655.97 215.527 653.953 213.07 649.92 213.07C647.793 213.07 646.217 213.913 645.19 215.6C644.163 217.213 643.613 219.89 643.54 223.63H622.64C622.86 217.103 624.29 211.713 626.93 207.46C629.57 203.133 633.017 199.98 637.27 198C641.523 195.947 646.253 194.92 651.46 194.92C660.407 194.92 667.043 197.157 671.37 201.63C675.697 206.103 677.86 211.713 677.86 218.46C677.86 225.647 675.33 232.467 670.27 238.92C665.283 245.3 659.013 251.13 651.46 256.41H678.96V273.9H622.86V257.73ZM716.947 195.47C705.947 195.47 697.88 199.027 692.747 206.14C687.614 213.253 685.047 222.86 685.047 234.96C685.047 247.133 687.614 256.777 692.747 263.89C697.88 271.003 705.947 274.56 716.947 274.56C727.947 274.56 736.014 271.003 741.147 263.89C746.354 256.777 748.957 247.133 748.957 234.96C748.957 222.933 746.354 213.363 741.147 206.25C736.014 199.063 727.947 195.47 716.947 195.47ZM716.947 215.82C721.274 215.82 724.134 217.507 725.527 220.88C726.92 224.18 727.617 228.873 727.617 234.96C727.617 241.12 726.92 245.887 725.527 249.26C724.134 252.56 721.274 254.21 716.947 254.21C712.62 254.21 709.76 252.56 708.367 249.26C706.974 245.887 706.277 241.12 706.277 234.96C706.277 228.873 706.974 224.18 708.367 220.88C709.76 217.507 712.62 215.82 716.947 215.82ZM753.932 217.25V197.12H787.812V275H765.262V217.25H753.932ZM820.011 250.69C820.891 255.677 823.604 258.17 828.151 258.17C831.451 258.17 833.688 256.63 834.861 253.55C836.108 250.397 836.731 245.373 836.731 238.48C835.264 240.607 833.211 242.293 830.571 243.54C827.931 244.787 824.961 245.41 821.661 245.41C814.548 245.41 808.791 243.247 804.391 238.92C800.064 234.52 797.901 228.213 797.901 220C797.901 214.573 799.038 209.843 801.311 205.81C803.584 201.777 806.811 198.66 810.991 196.46C815.171 194.26 820.121 193.16 825.841 193.16C837.061 193.16 844.871 196.533 849.271 203.28C853.671 210.027 855.871 219.817 855.871 232.65C855.871 247.023 853.744 257.767 849.491 264.88C845.311 271.993 838.124 275.55 827.931 275.55C822.138 275.55 817.151 274.413 812.971 272.14C808.864 269.793 805.711 266.75 803.511 263.01C801.384 259.197 800.174 255.09 799.881 250.69H820.011ZM826.831 228.69C829.398 228.69 831.414 227.957 832.881 226.49C834.348 224.95 835.081 222.897 835.081 220.33C835.081 217.397 834.311 215.197 832.771 213.73C831.304 212.263 829.251 211.53 826.611 211.53C823.971 211.53 821.881 212.3 820.341 213.84C818.874 215.307 818.141 217.433 818.141 220.22C818.141 222.787 818.874 224.84 820.341 226.38C821.881 227.92 824.044 228.69 826.831 228.69Z" fill="white"/>
<path d="M161.84 30L23 79.7685L44.1785 264.291L161.84 329.794L279.495 264.291L300.673 79.7685L161.84 30Z" fill="#DD0031"/>
<path d="M161.84 63.2795V63.1287V214.975V329.794L280.249 264.291L301.556 79.7685L161.84 30V63.2795Z" fill="#C3002F"/>
<path d="M255.12 251.263L138.717 217.305L148.646 192.281L257.593 225.9L255.12 251.263Z" fill="white"/>
<path d="M190.807 196.232L161.976 126.295L107.986 256.488H75.9125L161.833 63.4831L224.765 204.827L190.807 196.232Z" fill="white"/>
</svg>
