<svg width="120" height="72" xmlns="http://www.w3.org/2000/svg"><g fill="currentColor" fill-rule="evenodd"><path d="M24.882 23.5c.715.81 1.073 1.925 1.073 3.344V33h-3.249v-5.776c0-.71-.187-1.263-.56-1.662-.374-.4-.871-.599-1.492-.599-.659 0-1.181.209-1.567.627-.387.418-.58 1.013-.58 1.786V33h-3.249V22.398h3.249v1.938a3.497 3.497 0 0 1 1.359-1.501c.601-.367 1.307-.551 2.118-.551 1.216 0 2.182.405 2.898 1.216zm9.338-.684a3.312 3.312 0 0 1 1.292 1.501v-1.919h3.23v10.545c0 .988-.19 1.878-.57 2.67a4.372 4.372 0 0 1-1.748 1.89c-.785.469-1.76.703-2.926.703-1.596 0-2.872-.377-3.828-1.13-.957-.754-1.53-1.777-1.72-3.069h3.211c.101.43.332.766.694 1.007.36.24.832.361 1.415.361.671 0 1.213-.193 1.625-.58.411-.386.617-1.003.617-1.852v-1.862a3.312 3.312 0 0 1-1.292 1.501c-.583.367-1.28.551-2.09.551-.874 0-1.656-.218-2.346-.655-.69-.438-1.235-1.068-1.634-1.891-.4-.823-.599-1.786-.599-2.888 0-1.115.2-2.08.599-2.897.399-.818.943-1.444 1.634-1.881.69-.438 1.472-.656 2.346-.656.81 0 1.507.184 2.09.551zm-2.726 2.983c-.425.456-.637 1.09-.637 1.9 0 .81.212 1.444.637 1.9.424.456.984.684 1.681.684.684 0 1.244-.234 1.681-.703.438-.469.656-1.096.656-1.881 0-.798-.218-1.428-.655-1.89-.438-.463-.998-.694-1.682-.694-.697 0-1.257.228-1.681.684zM41 26.241h6v3.5h-6zM49.668 20.622a1.565 1.565 0 0 1-.532-1.207c0-.494.177-.902.532-1.226.355-.323.823-.484 1.406-.484s1.051.161 1.406.484c.355.324.532.732.532 1.226 0 .481-.177.883-.532 1.207-.355.323-.823.484-1.406.484s-1.051-.161-1.406-.485zM47.692 35.26h.798c.342 0 .589-.073.741-.219.152-.145.228-.389.228-.731V22.398h3.268v11.875c0 2.52-1.267 3.781-3.8 3.781h-1.235v-2.793zm13.357-12.445a3.312 3.312 0 0 1 1.292 1.501v-1.919h3.23V33h-3.23v-1.919a3.312 3.312 0 0 1-1.292 1.501c-.583.367-1.28.551-2.09.551-.874 0-1.656-.218-2.346-.656-.69-.437-1.235-1.067-1.634-1.89-.4-.823-.599-1.786-.599-2.888 0-1.115.2-2.08.599-2.898.399-.817.943-1.443 1.634-1.88.69-.438 1.472-.656 2.346-.656.81 0 1.507.184 2.09.551zm-2.726 2.983c-.425.456-.637 1.09-.637 1.9 0 .81.212 1.444.637 1.9.424.456.984.684 1.681.684.684 0 1.245-.234 1.682-.703.437-.469.655-1.096.655-1.881 0-.798-.218-1.428-.655-1.89-.437-.463-.998-.694-1.682-.694-.697 0-1.257.228-1.681.684zm18.449-2.879c.69.438 1.235 1.064 1.634 1.881.399.818.598 1.783.598 2.898 0 1.102-.2 2.065-.598 2.888-.4.823-.944 1.453-1.634 1.89-.69.438-1.473.656-2.347.656-.81 0-1.507-.184-2.09-.551a3.2 3.2 0 0 1-1.273-1.501v6.973h-3.249V22.398h3.249v1.919a3.2 3.2 0 0 1 1.273-1.501c.583-.367 1.28-.551 2.09-.551.874 0 1.656.218 2.347.655zm-5.073 2.888c-.437.463-.656 1.093-.656 1.891 0 .785.219 1.412.656 1.881.437.469.997.703 1.681.703.697 0 1.257-.228 1.682-.684.424-.456.636-1.09.636-1.9 0-.81-.212-1.444-.636-1.9-.425-.456-.985-.684-1.682-.684-.684 0-1.244.231-1.681.693zm15.114-2.992a3.312 3.312 0 0 1 1.292 1.501v-1.919h3.23V33h-3.23v-1.919a3.312 3.312 0 0 1-1.292 1.501c-.583.367-1.28.551-2.09.551-.874 0-1.656-.218-2.346-.656-.69-.437-1.235-1.067-1.634-1.89-.4-.823-.599-1.786-.599-2.888 0-1.115.2-2.08.599-2.898.399-.817.943-1.443 1.634-1.88.69-.438 1.472-.656 2.346-.656.81 0 1.507.184 2.09.551zm-2.726 2.983c-.425.456-.637 1.09-.637 1.9 0 .81.212 1.444.637 1.9.424.456.984.684 1.681.684.684 0 1.245-.234 1.682-.703.437-.469.655-1.096.655-1.881 0-.798-.218-1.428-.655-1.89-.437-.463-.998-.694-1.682-.694-.697 0-1.257.228-1.681.684zM103.2 23.5c.715.81 1.073 1.925 1.073 3.344V33h-3.249v-5.776c0-.71-.187-1.263-.56-1.663-.374-.399-.871-.598-1.492-.598-.659 0-1.181.209-1.567.627-.387.418-.58 1.013-.58 1.786V33h-3.249V22.398h3.249v1.938a3.497 3.497 0 0 1 1.359-1.501c.601-.367 1.307-.551 2.118-.551 1.216 0 2.182.405 2.898 1.216zM72.061 55h-9.937v-2.546c5.491-3.971 6.517-4.845 6.517-6.118 0-.855-.817-1.311-1.748-1.311-1.406 0-2.47.532-3.382 1.387l-1.805-2.166c1.349-1.482 3.363-2.109 5.13-2.109 2.983 0 5.13 1.672 5.13 4.199 0 1.957-1.387 3.61-4.541 5.814h4.636V55zm6.888.228c-3.705 0-5.434-3.211-5.434-6.555s1.729-6.536 5.434-6.536 5.434 3.192 5.434 6.536c0 3.344-1.729 6.555-5.434 6.555zm0-2.888c1.52 0 2.128-1.425 2.128-3.667s-.608-3.648-2.128-3.648-2.128 1.406-2.128 3.648.608 3.667 2.128 3.667zM92.43 55h-3.268v-8.493l-2.128 2.147-1.862-1.957 4.427-4.37h2.831V55zm7.211.228c-2.736 0-5.377-1.083-5.377-3.572 0-1.444 1.102-2.622 2.565-3.192-1.349-.513-2.356-1.425-2.356-2.945 0-2.451 2.698-3.382 5.168-3.382s5.168.931 5.168 3.382c0 1.52-1.007 2.432-2.375 2.945 1.482.57 2.584 1.748 2.584 3.192 0 2.47-2.641 3.572-5.377 3.572zm0-8.037c.779-.114 1.824-.475 1.824-1.121 0-.665-.722-1.045-1.824-1.045s-1.843.38-1.843 1.045c0 .646 1.064 1.007 1.843 1.121zm0 5.149c1.178 0 2.052-.456 2.052-1.14 0-.76-1.254-1.159-2.052-1.254-.817.095-2.052.494-2.052 1.254 0 .684.836 1.14 2.052 1.14z"/></g></svg>
